<?xml version="1.0" standalone="no"?>
<!DOCTYPE svg PUBLIC "-//W3C//DTD SVG 20010904//EN"
 "http://www.w3.org/TR/2001/REC-SVG-20010904/DTD/svg10.dtd">
<svg version="1.0" xmlns="http://www.w3.org/2000/svg"
 width="256.000000pt" height="256.000000pt" viewBox="0 0 256.000000 256.000000"
 preserveAspectRatio="xMidYMid meet">

<g transform="translate(0.000000,256.000000) scale(0.100000,-0.100000)"
fill="#000000" stroke="none">
<path d="M670 2310 l0 -80 -85 0 -85 0 0 -85 0 -85 -85 0 -85 0 0 -85 0 -85
-80 0 -80 0 0 -335 0 -335 -85 0 -85 0 0 -195 0 -196 82 3 83 3 3 193 2 192
1110 0 1110 0 2 -192 3 -193 83 -3 82 -3 0 196 0 195 -85 0 -85 0 0 335 0 335
-80 0 -80 0 0 85 0 85 -85 0 -85 0 0 85 0 85 -85 0 -85 0 0 80 0 80 -610 0
-610 0 0 -80z m1220 -165 l0 -85 85 0 85 0 0 -85 0 -85 85 0 85 0 0 -250 0
-250 -950 0 -950 0 0 250 0 250 85 0 85 0 0 85 0 85 85 0 85 0 0 85 0 85 610
0 610 0 0 -85z"/>
<path d="M834 2047 c-3 -8 -4 -45 -2 -83 l3 -69 83 -3 82 -3 0 86 0 85 -80 0
c-58 0 -82 -4 -86 -13z"/>
<path d="M1500 1975 l0 -85 85 0 85 0 0 85 0 85 -85 0 -85 0 0 -85z"/>
<path d="M1170 1920 l0 -80 85 0 85 0 0 80 0 80 -85 0 -85 0 0 -80z"/>
<path d="M170 580 l0 -250 80 0 80 0 0 -80 0 -80 950 0 950 0 0 80 0 80 80 0
80 0 0 250 0 250 -1110 0 -1110 0 0 -250z m2058 -82 l2 -168 -950 0 -950 0 0
163 c0 90 3 167 7 170 3 4 430 6 947 5 l941 -3 3 -167z"/>
</g>
</svg>
